<svg width="512" height="512" xmlns="http://www.w3.org/2000/svg">

 <g>
  <title>background</title>
  <rect fill="none" id="canvas_background" height="402" width="582" y="-1" x="-1"/>
 </g>
 <g>
  <title>Layer 1</title>
  <path fill="#000000" id="path3773"/>
  <path fill="#000000" id="path3771"/>
  <path fill="#000000" id="path3790"/>
  <path fill="#000000" id="path3788"/>
  <path fill="#000000" id="path3786"/>
  <path fill="#000000" id="path3805"/>
  <path fill="#000000" id="path3822"/>
  <path fill="#000000" id="path3820"/>
  <path fill="#000000" id="path3818"/>
  <path fill="#000000" id="path31542"/>
  <path fill="#000000" id="path31540"/>
  <path clip-rule="nonzero" fill="#635854" fill-rule="nonzero" stroke-linejoin="round" stroke-miterlimit="4" stroke-dashoffset="0" id="path8211" d="m72,44l0,16l8,0l64,0l8,0l216,0c31.16238,0 56,24.83762 56,56l0,248l0,72l16,0l0,-72l0,-248c0,-39.74962 -32.25038,-72 -72,-72l-216,0l-8,0l-64,0l-8,0zm0,32l0,40l0,280c0,39.74962 32.25038,72 72,72l192,0l104,0l0,-16l-16,0l-24,0l-64,0l-192,0c-31.16238,0 -56,-24.83762 -56,-56l0,-280l0,-40l-16,0z"/>
  <path fill="#635854" stroke-linejoin="round" stroke-miterlimit="4" stroke-dashoffset="0" id="path31544" d="m245.73733,332.77117c-12.99063,-2.18242 -21.10555,-4.63008 -30.25002,-9.12418c-23.3456,-11.47329 -39.88925,-29.38851 -63.74479,-69.02965c-12.23073,-20.324 -31.50521,-59.66852 -31.50521,-64.31081c0,-2.18667 2.49787,-4.01426 6.38051,-4.66834c4.71806,-0.79488 41.15573,-0.46528 43.72896,0.39552c3.75205,1.25504 5.10804,3.06242 8.87832,11.83357c6.69375,15.57219 14.1242,29.20336 22.8945,42.00002c5.07704,7.40784 8.29144,11.03246 11.82024,13.32873c4.0689,2.64771 6.25882,2.65027 8.77019,0.0103c2.28928,-2.40651 3.37371,-5.70853 4.29867,-13.08901c1.25888,-10.04536 0.79744,-31.02297 -0.84144,-38.25c-1.15456,-5.09112 -3.56571,-8.45536 -7.61494,-10.62483c-2.25163,-1.2064 -4.88995,-2.10894 -6.19006,-2.11765c-2.38936,-0.016 -0.98864,-3.02896 2.52225,-5.42536c5.56735,-3.80011 12.37315,-4.83734 31.60275,-4.8164c23.59592,0.0256 29.03879,1.6492 31.79615,9.48421c0.57136,1.62355 0.6568,5.10571 0.45392,18.5c-0.1376,9.07501 -0.23312,21.45002 -0.21248,27.50002c0.0352,10.1702 0.1232,11.21718 1.1624,13.87912c1.57072,4.02033 3.87998,6.37088 6.25883,6.37088c2.47638,0 4.44594,-1.10048 7.9556,-4.44498c10.12253,-9.64624 23.96616,-32.91586 32.77309,-55.08794c2.58565,-6.50952 4.23163,-8.63918 7.26805,-9.40376c1.49392,-0.37616 9.6915,-0.56336 24.67398,-0.56336c21.53498,0 26.36965,0.25824 29.76237,1.58928c8.25717,3.2396 1.55984,18.28864 -21.83856,49.07136c-17.58507,23.13482 -18.92987,25.26591 -19.00592,30.1186c-0.072,4.63142 1.33488,6.88452 8.8832,14.22081c20.19337,19.62605 25.05632,24.86776 30.26723,32.62459c3.73378,5.558 5.04141,8.61754 5.04722,11.80924c0.004,2.44036 -0.16624,2.85491 -1.8812,4.5699c-1.39328,1.39328 -2.8118,2.16176 -5.4289,2.94117c-3.36782,1.00304 -4.61694,1.05504 -25.28565,1.05504c-20.27321,0 -21.93485,-0.0656 -24.58376,-0.97744c-7.06179,-2.42962 -12.64883,-6.73042 -21.13921,-16.27258c-2.69157,-3.02501 -7.4945,-8.10873 -10.67317,-11.2972c-4.88135,-4.89637 -6.23424,-5.96739 -8.70637,-6.89232c-2.52098,-0.9432 -3.17797,-1.0136 -4.7369,-0.50704c-6.19369,2.01215 -9.68894,9.81903 -10.50512,23.46387c-0.44352,7.41458 -1.25568,9.18431 -5.08454,11.07866l-2.7203,1.34592l-12,-0.0384c-6.6,-0.0208 -12.56252,-0.1328 -13.25,-0.24896l0.00011,-0.0006z"/>
 </g>
</svg>