<svg width="512" height="512" xmlns="http://www.w3.org/2000/svg">

 <g>
  <title>background</title>
  <rect fill="none" id="canvas_background" height="402" width="582" y="-1" x="-1"/>
 </g>
 <g>
  <title>Layer 1</title>
  <path fill="#000000" id="path3773"/>
  <path fill="#000000" id="path3771"/>
  <path fill="#000000" id="path3790"/>
  <path fill="#000000" id="path3788"/>
  <path fill="#000000" id="path3786"/>
  <path fill="#000000" id="path3805"/>
  <path fill="#000000" id="path3822"/>
  <path fill="#000000" id="path3820"/>
  <path fill="#000000" id="path3818"/>
  <path fill="#000000" id="path2048"/>
  <path clip-rule="nonzero" fill="#635854" fill-rule="nonzero" stroke-width="0.0625" stroke-linejoin="round" stroke-miterlimit="4" stroke-dashoffset="0" id="path8211" d="m72,44l0,16l8,0l64,0l8,0l216,0c31.1624,0 56,24.8376 56,56l0,248l0,72l16,0l0,-72l0,-248c0,-39.7496 -32.2504,-72 -72,-72l-216,0l-8,0l-64,0l-8,0zm0,32l0,40l0,280c0,39.7496 32.2504,72 72,72l192,0l104,0l0,-16l-16,0l-24,0l-64,0l-192,0c-31.1624,0 -56,-24.8376 -56,-56l0,-280l0,-40l-16,0z"/>
  <path fill="#635854" stroke-width="0.9375" stroke-linejoin="round" stroke-miterlimit="4" stroke-dashoffset="0" id="path2050" d="m198.40752,380.7872c-16.38672,-2.4032 -31.24912,-10.14 -43.84112,-22.82192c-12.57152,-12.66144 -19.08368,-24.39648 -22.37152,-40.31376c-2.35088,-11.38128 -2.36032,-111.1432 -0.01152,-122.51424c6.22464,-30.13568 29.20704,-54.3352 58.56848,-61.67056c7.50352,-1.87456 13.20736,-2.45584 28.85248,-2.94032c28.89728,-0.89488 47.15664,0.41424 59,4.2304c20.07792,6.4696 35.7136,19.68704 46.34784,39.17984c5.16272,9.46352 7.50544,17.47616 9.092,31.09824c1.53152,13.14896 2.56016,15.50496 8.54992,19.5816c2.8216,1.92032 4.63952,2.2536 12.408,2.2744c5.00624,0.01344 11.1272,0.48864 13.60224,1.056c5.452,1.24976 10.6344,5.94464 12.00416,10.87536c1.30512,4.69776 1.27856,60.27008 -0.0336,71.07056c-4.43088,36.46288 -31.06576,64.48832 -67.404,70.92304c-7.0824,1.25408 -106.18464,1.22944 -114.76304,-0.0288l-0.00032,0.00016zm110.99664,-64.32576c10.79312,-5.61568 11.45792,-20.5224 1.20032,-26.91408c-3.44816,-2.14864 -4.20304,-2.18576 -51,-2.50512c-54.27488,-0.37024 -55.92768,-0.212 -61.43536,5.88432c-3.1336,3.46864 -3.56416,4.57984 -3.5608,9.19264c0.00432,6.2048 2.43584,10.82528 7.23712,13.75264c3.13888,1.91376 5.13248,1.9872 54.05872,1.99072c41.68592,0.00304 51.28416,-0.24832 53.5,-1.40128l0,0.00016zm-45.23344,-91.08096c4.49328,-2.63328 8.43392,-8.996 8.43392,-13.61792c0,-3.93296 -4.19552,-11.1776 -7.89792,-13.63808c-3.32624,-2.2104 -3.99328,-2.25808 -31.60208,-2.25808c-27.68048,0 -28.26704,0.0416 -31.5784,2.27376c-9.43824,6.36048 -10.70544,18.00352 -2.76624,25.41616c1.29008,1.20448 3.4704,2.6384 4.84512,3.18656c1.42848,0.5696 14.032,1.02384 29.41152,1.06l26.91216,0.064l4.24192,-2.4864z"/>
 </g>
</svg>