<svg width="512" height="512" xmlns="http://www.w3.org/2000/svg">

 <g>
  <title>background</title>
  <rect fill="none" id="canvas_background" height="402" width="582" y="-1" x="-1"/>
 </g>
 <g>
  <title>Layer 1</title>
  <path fill="#000000" id="path3773"/>
  <path fill="#000000" id="path3771"/>
  <path fill="#000000" id="path3790"/>
  <path fill="#000000" id="path3788"/>
  <path fill="#000000" id="path3786"/>
  <path fill="#000000" id="path3805"/>
  <path fill="#000000" id="path3822"/>
  <path fill="#000000" id="path3820"/>
  <path fill="#000000" id="path3818"/>
  <path clip-rule="nonzero" fill="#635854" fill-rule="nonzero" stroke-width="0.0625" stroke-linejoin="round" stroke-miterlimit="4" stroke-dashoffset="0" id="path8211" d="m72,44l0,16l8,0l64,0l8,0l216,0c31.1624,0 56,24.8376 56,56l0,248l0,72l16,0l0,-72l0,-248c0,-39.7496 -32.2504,-72 -72,-72l-216,0l-8,0l-64,0l-8,0zm0,32l0,40l0,280c0,39.7496 32.2504,72 72,72l192,0l104,0l0,-16l-16,0l-24,0l-64,0l-192,0c-31.1624,0 -56,-24.8376 -56,-56l0,-280l0,-40l-16,0z"/>
  <path fill="#635854" stroke-width="0.0625" id="path34055" d="m141.8592,357.64304c3.75696,-11.17056 8.57616,-25.50224 10.70944,-31.848l3.8784,-11.53776l-1.63568,-2.88224c-7.67744,-13.52768 -12.44768,-27.996 -14.46352,-43.8688c-3.35008,-26.37824 2.51392,-53.75312 16.36496,-76.39632c5.14128,-8.40464 10.5096,-15.18576 17.73808,-22.40544c17.6208,-17.59984 40.83328,-29.45664 64.78784,-33.09344c25.1704,-3.82144 49.64464,-0.1168 71.58048,10.83328c5.26464,2.62832 8.16656,4.31648 13.29152,7.7328c17.97168,11.97968 32.55952,28.98768 41.65856,48.56992c5.54304,11.92896 9.01552,24.4544 10.3384,37.29072c2.05504,19.94176 -0.49008,38.60784 -7.76464,56.94464c-8.81392,22.2176 -24.76736,41.78112 -44.8648,55.0176c-16.35584,10.77216 -35.10352,17.35648 -54.51744,19.14672c-4.48752,0.41376 -17.15104,0.4152 -21.62976,0.00224c-14.53136,-1.33936 -28.072,-5.1624 -41.53296,-11.72592l-5.23008,-2.55024l-13.99648,4.49312c-21.5928,6.93184 -35.81216,11.48576 -43.84816,14.0432c-4.03504,1.28432 -7.41712,2.38192 -7.51584,2.43952c-0.09856,0.0576 2.89472,-9.03488 6.65168,-20.2056zm127.22816,-6.39872c17.54368,-2.0976 33.70816,-8.43968 47.55056,-18.65616c18.3528,-13.54528 31.02864,-32.1888 37.28048,-54.83232c0.53904,-1.95216 1.85072,-8.7232 2.30336,-11.89008c2.73056,-19.10368 -0.8992,-40.2008 -9.94544,-57.80624c-4.93328,-9.60064 -10.13216,-16.8064 -17.58256,-24.36944c-5.57008,-5.65424 -9.9608,-9.30208 -16.156,-13.42304c-12.29296,-8.1768 -26.89232,-13.64304 -41.66432,-15.59968c-7.27808,-0.96416 -19.20608,-0.89648 -26.41904,0.14976c-12.47264,1.80912 -24.61952,5.94848 -35.07056,11.9512c-27.49472,15.79184 -45.64912,43.04416 -49.49888,74.30528c-0.57056,4.63344 -0.64288,17.69872 -0.12512,22.51536c1.672,15.53904 7.10832,30.45776 16.0232,43.972l2.22208,3.36848l-1.25504,3.71488c-7.4232,21.97024 -11.04736,32.93424 -10.88656,32.93424c0.1072,0 5.98592,-1.86336 13.0656,-4.14096c19.38032,-6.23456 24.4336,-7.83392 24.73824,-7.82896c0.1536,0.00256 1.41552,0.7264 2.80688,1.60864c3.65952,2.3208 11.02672,5.99696 15.5584,7.76352c3.88672,1.5152 8.864,3.10912 12.78864,4.09504c2.88096,0.72384 10.33536,1.95808 13.77424,2.28064c1.60016,0.1504 3.36464,0.31824 3.92128,0.3736c2.2488,0.224 13.35824,-0.1024 16.57024,-0.48592l0.00032,0.00016zm18.84672,-39.00112c-5.10912,-0.64032 -13.4112,-3.44832 -25.648,-8.67536c-11.89744,-5.08208 -20.29536,-10.90096 -30.6632,-21.24672c-9.1,-9.08048 -14.07728,-15.50832 -23.41792,-30.24288c-1.92048,-3.02944 -4.79088,-8.71136 -6.11776,-12.1096c-2.20272,-5.64176 -3.55936,-13.07696 -3.21424,-17.61568c0.71392,-9.3864 3.99776,-16.584 10.53552,-23.09232c2.0016,-1.99248 2.86048,-2.65232 4.41056,-3.38848c1.72656,-0.81984 2.15136,-0.91696 4.1208,-0.9408c1.20768,-0.01472 3.76944,0.0752 5.6928,0.2008c5.7104,0.37152 5.34544,-0.1216 10.68208,14.44528c3.36944,9.19728 4.20064,11.42336 4.94784,13.24976c1.26544,3.09344 1.24656,3.7976 -0.17712,6.5792c-1.25232,2.44656 -3.30144,5.008 -7.20832,9.01088c-1.0864,1.11312 -2.09504,2.34432 -2.24144,2.736c-0.63408,1.69664 -0.1136,3.23744 2.61104,7.71664c4.09648,6.73664 7.73584,11.42048 12.93008,16.6408c7.05056,7.08608 13.0248,11.32064 22.4456,15.90944c4.88848,2.38112 6.0984,2.64368 7.69488,1.67024c0.93568,-0.57056 5.29584,-5.308 9.45504,-10.27328c1.63424,-1.95088 3.15664,-3.70096 3.3832,-3.88896c0.7368,-0.61168 2.50544,-0.63472 4.24192,-0.056c2.68512,0.89552 25.34656,12.9336 26.5256,14.09104c0.54608,0.536 0.64304,0.88736 0.7216,2.61936c0.17024,3.75056 -1.42048,10.6632 -3.12304,13.57152c-2.56816,4.38656 -8.88368,8.91152 -15.92416,11.40944c-0.9664,0.34288 -2.95856,0.78224 -4.42704,0.97632c-1.46848,0.19408 -3.28336,0.47024 -4.03296,0.6136c-1.32848,0.25408 -2.66384,0.28256 -4.20288,0.0896l-0.00048,0.00016z"/>
 </g>
</svg>